<svg xmlns="http://www.w3.org/2000/svg" xmlns:xlink="http://www.w3.org/1999/xlink" width="567" zoomAndPan="magnify" viewBox="0 0 425.25 283.500005" height="378" preserveAspectRatio="xMidYMid meet" version="1.0"><defs><g/><clipPath id="08a42a2427"><path d="M 33.425781 87.546875 L 157.871094 87.546875 L 157.871094 187.71875 L 33.425781 187.71875 Z M 33.425781 87.546875 " clip-rule="nonzero"/></clipPath></defs><g clip-path="url(#08a42a2427)"><path fill="#323131" d="M 48.117188 118.488281 C 46.871094 117.171875 46.097656 115.417969 46.097656 113.472656 C 46.097656 110.855469 47.511719 108.449219 49.757812 107.140625 C 49.8125 103.128906 53.105469 99.882812 57.152344 99.882812 C 58.671875 99.882812 60.117188 100.347656 61.371094 101.230469 C 62.492188 100.894531 63.578125 100.820312 64.773438 101.066406 C 66.171875 99.34375 68.261719 98.339844 70.503906 98.339844 C 71.941406 98.339844 73.296875 98.753906 74.445312 99.480469 C 77.554688 95.3125 82.40625 92.835938 87.691406 92.835938 C 90.101562 92.835938 92.449219 93.375 94.683594 94.433594 C 97.824219 90.113281 102.777344 87.558594 108.128906 87.558594 C 114.699219 87.558594 120.640625 91.480469 123.265625 97.433594 C 125.28125 96.644531 127.324219 96.25 129.359375 96.25 C 137.695312 96.25 144.59375 102.300781 145.71875 110.457031 C 152.957031 112.417969 157.945312 118.855469 157.945312 126.371094 C 157.945312 131.101562 155.917969 135.507812 152.347656 138.636719 C 154.929688 141.632812 156.335938 145.410156 156.335938 149.40625 C 156.335938 157.816406 149.957031 164.765625 141.753906 165.753906 L 141.753906 186.5625 C 141.753906 187.179688 141.257812 187.675781 140.644531 187.675781 L 133.175781 187.675781 C 132.558594 187.675781 132.0625 187.179688 132.0625 186.5625 L 132.0625 169.585938 C 131.277344 170.65625 130.339844 171.585938 129.328125 172.433594 L 129.328125 186.5625 C 129.328125 187.179688 128.832031 187.675781 128.214844 187.675781 L 120.777344 187.675781 C 120.160156 187.675781 119.664062 187.179688 119.664062 186.5625 L 119.664062 176.261719 C 119.34375 176.28125 119.03125 176.335938 118.707031 176.335938 C 114.347656 176.335938 110.167969 174.59375 107.0625 171.519531 C 105 173.816406 102.390625 175.449219 99.515625 176.320312 L 99.515625 186.5625 C 99.515625 187.179688 99.015625 187.675781 98.402344 187.675781 L 90.960938 187.675781 C 90.347656 187.675781 89.847656 187.179688 89.847656 186.5625 L 89.847656 176.285156 C 88.890625 175.988281 87.972656 175.59375 87.085938 175.132812 L 87.085938 186.5625 C 87.085938 187.179688 86.589844 187.675781 85.972656 187.675781 L 78.535156 187.675781 C 77.917969 187.675781 77.421875 187.179688 77.421875 186.5625 L 77.421875 168.007812 C 71.238281 167.636719 65.816406 163.933594 63.28125 158.277344 C 55.054688 155.574219 50.074219 150.457031 48.929688 143.359375 C 48.929688 143.355469 48.929688 143.355469 48.929688 143.355469 C 48.371094 139.875 48.417969 136.289062 48.785156 132.832031 C 44.277344 135.363281 39.738281 135.84375 36.96875 135.84375 C 35.410156 135.84375 34.410156 135.691406 34.292969 135.671875 C 33.992188 135.625 33.726562 135.457031 33.554688 135.210938 C 33.378906 134.964844 33.316406 134.65625 33.375 134.359375 C 35.363281 124.226562 44.914062 119.726562 48.117188 118.488281 Z M 66.164062 102.929688 C 65.894531 103.347656 65.386719 103.535156 64.910156 103.390625 C 63.589844 103 62.648438 103.09375 61.566406 103.511719 C 61.1875 103.660156 60.765625 103.585938 60.453125 103.328125 C 59.496094 102.53125 58.355469 102.109375 57.152344 102.109375 C 54.300781 102.109375 51.980469 104.410156 52.003906 107.4375 C 52.007812 107.453125 52.03125 107.675781 52.035156 107.691406 C 52.074219 108.164062 51.8125 108.613281 51.378906 108.804688 C 49.523438 109.632812 48.320312 111.464844 48.320312 113.472656 C 48.320312 115.492188 49.515625 117.222656 51.226562 118.0625 C 51.460938 118.171875 51.699219 118.261719 51.941406 118.339844 C 52.070312 118.378906 52.199219 118.429688 52.335938 118.460938 C 52.675781 118.539062 53.027344 118.582031 53.382812 118.589844 C 53.410156 118.589844 53.4375 118.597656 53.464844 118.597656 C 53.601562 118.597656 53.742188 118.582031 53.882812 118.570312 C 53.992188 118.5625 54.101562 118.558594 54.210938 118.542969 C 55.636719 118.324219 56.964844 117.480469 57.789062 116.25 C 58.019531 115.894531 58.222656 115.515625 58.367188 115.097656 C 58.515625 114.660156 58.917969 114.363281 59.382812 114.34375 C 59.601562 114.351562 59.824219 114.417969 60.015625 114.535156 C 60.207031 114.652344 60.367188 114.824219 60.457031 115.042969 C 60.554688 115.273438 60.710938 115.460938 60.835938 115.671875 C 61.761719 117.199219 63.382812 118.1875 65.21875 118.1875 C 66.351562 118.1875 67.445312 117.808594 68.375 117.09375 C 68.773438 116.785156 69.332031 116.785156 69.734375 117.09375 C 70.660156 117.808594 71.75 118.1875 72.886719 118.1875 C 73.097656 118.1875 73.3125 118.171875 73.542969 118.132812 C 73.761719 118.097656 73.988281 118.050781 74.222656 117.976562 C 74.488281 117.894531 74.761719 117.917969 75.003906 118.027344 C 75.027344 118.035156 75.042969 118.050781 75.0625 118.0625 C 75.148438 118.109375 75.234375 118.15625 75.308594 118.222656 C 75.375 118.285156 75.425781 118.359375 75.476562 118.4375 C 75.496094 118.464844 75.523438 118.484375 75.539062 118.515625 C 75.542969 118.523438 75.550781 118.53125 75.554688 118.539062 C 75.742188 118.898438 75.984375 119.210938 76.242188 119.507812 C 76.367188 119.652344 76.503906 119.78125 76.640625 119.910156 C 76.777344 120.035156 76.925781 120.148438 77.070312 120.257812 C 77.730469 120.742188 78.492188 121.066406 79.300781 121.203125 C 79.429688 121.222656 79.554688 121.242188 79.6875 121.253906 C 79.964844 121.28125 80.242188 121.292969 80.523438 121.273438 C 80.535156 121.273438 80.546875 121.269531 80.554688 121.269531 C 80.871094 121.246094 81.191406 121.1875 81.503906 121.101562 C 81.546875 121.089844 81.585938 121.078125 81.625 121.066406 C 81.894531 120.984375 82.160156 120.875 82.425781 120.75 C 82.496094 120.714844 82.5625 120.675781 82.628906 120.636719 C 83.046875 120.40625 83.425781 120.136719 83.753906 119.824219 C 83.8125 119.765625 83.851562 119.695312 83.90625 119.632812 C 84.15625 119.367188 84.375 119.082031 84.550781 118.773438 C 84.609375 118.679688 84.660156 118.582031 84.710938 118.484375 C 84.808594 118.296875 84.890625 118.105469 84.964844 117.90625 C 85.03125 117.722656 85.09375 117.542969 85.136719 117.351562 C 85.195312 117.101562 85.226562 116.839844 85.246094 116.578125 C 85.253906 116.449219 85.285156 116.320312 85.285156 116.1875 C 85.285156 114.800781 84.730469 113.5 83.722656 112.527344 C 83.40625 112.222656 83.300781 111.761719 83.449219 111.347656 C 83.511719 111.175781 83.546875 111.011719 83.589844 110.839844 C 83.699219 110.410156 83.773438 110.003906 83.773438 109.621094 C 83.773438 109.617188 83.769531 109.609375 83.769531 109.605469 C 83.769531 109.226562 83.714844 108.855469 83.632812 108.496094 C 83.601562 108.347656 83.546875 108.207031 83.5 108.0625 C 83.433594 107.863281 83.367188 107.667969 83.277344 107.480469 C 83.195312 107.296875 83.097656 107.125 82.992188 106.953125 C 82.921875 106.839844 82.84375 106.726562 82.765625 106.617188 C 82.617188 106.417969 82.460938 106.222656 82.285156 106.042969 C 82.253906 106.007812 82.214844 105.980469 82.183594 105.945312 C 81.332031 105.136719 80.203125 104.625 78.953125 104.539062 C 78.753906 104.53125 78.554688 104.511719 78.347656 104.527344 C 78.246094 104.535156 78.144531 104.542969 78.046875 104.558594 C 77.652344 104.609375 77.253906 104.691406 76.851562 104.84375 C 76.566406 104.949219 76.253906 104.933594 75.980469 104.800781 C 75.707031 104.671875 75.5 104.433594 75.40625 104.144531 C 75.269531 103.730469 75.078125 103.34375 74.851562 102.988281 C 74.828125 102.949219 74.804688 102.910156 74.78125 102.871094 C 74.539062 102.515625 74.261719 102.1875 73.9375 101.910156 C 73.921875 101.894531 73.914062 101.875 73.898438 101.859375 C 72.980469 101.050781 71.792969 100.5625 70.503906 100.5625 C 68.746094 100.5625 67.121094 101.449219 66.164062 102.929688 Z M 85.871094 120.773438 C 85.75 120.917969 85.632812 121.0625 85.503906 121.195312 C 85.203125 121.511719 84.878906 121.804688 84.523438 122.066406 C 84.464844 122.105469 84.425781 122.160156 84.367188 122.199219 C 84.445312 122.460938 84.515625 122.753906 84.589844 123.023438 C 84.691406 123.398438 84.792969 123.765625 84.894531 124.152344 C 85.011719 124.605469 85.117188 125.070312 85.230469 125.542969 C 85.277344 125.738281 85.328125 125.925781 85.371094 126.128906 C 85.378906 126.15625 85.386719 126.183594 85.390625 126.210938 C 85.433594 126.398438 85.472656 126.589844 85.515625 126.785156 C 85.617188 127.269531 85.710938 127.765625 85.804688 128.265625 C 85.890625 128.703125 85.972656 129.132812 86.046875 129.578125 C 86.070312 129.71875 86.097656 129.855469 86.121094 129.996094 C 91.304688 133.519531 96.988281 133.710938 99.421875 133.578125 C 97.0625 125.148438 88.375 121.332031 86.128906 120.472656 C 86.050781 120.582031 85.953125 120.671875 85.871094 120.773438 Z M 134.289062 165.398438 L 134.289062 185.453125 L 139.53125 185.453125 L 139.53125 165.886719 C 139.003906 165.878906 138.488281 165.800781 137.96875 165.746094 C 137.640625 165.714844 137.304688 165.714844 136.976562 165.660156 C 136.1875 165.527344 135.414062 165.328125 134.652344 165.082031 C 134.578125 165.058594 134.5 165.050781 134.421875 165.027344 C 134.414062 165.054688 134.398438 165.078125 134.390625 165.109375 C 134.355469 165.207031 134.320312 165.300781 134.289062 165.398438 Z M 121.886719 176.03125 L 121.886719 185.453125 L 127.105469 185.453125 L 127.105469 174.054688 C 126.992188 174.121094 126.863281 174.160156 126.746094 174.222656 C 126.253906 174.5 125.738281 174.734375 125.214844 174.960938 C 124.902344 175.09375 124.597656 175.234375 124.28125 175.347656 C 123.757812 175.535156 123.214844 175.671875 122.671875 175.808594 C 122.40625 175.875 122.15625 175.976562 121.886719 176.03125 Z M 92.074219 176.828125 L 92.074219 185.453125 L 97.289062 185.453125 L 97.289062 176.839844 C 97.203125 176.851562 97.121094 176.847656 97.039062 176.859375 C 96.277344 176.964844 95.507812 177.039062 94.722656 177.039062 C 94.710938 177.039062 94.703125 177.039062 94.691406 177.039062 C 94.523438 177.039062 94.355469 177.007812 94.1875 177 C 93.53125 176.980469 92.882812 176.9375 92.246094 176.84375 C 92.191406 176.832031 92.132812 176.835938 92.074219 176.828125 Z M 79.648438 185.453125 L 84.863281 185.453125 L 84.863281 173.796875 C 84.710938 173.6875 84.578125 173.558594 84.433594 173.445312 C 84.265625 173.3125 84.105469 173.171875 83.941406 173.035156 C 83.546875 172.699219 83.167969 172.34375 82.808594 171.972656 C 82.667969 171.828125 82.527344 171.6875 82.394531 171.539062 C 82.015625 171.121094 81.664062 170.683594 81.332031 170.230469 C 81.238281 170.101562 81.140625 169.984375 81.050781 169.855469 C 80.636719 169.253906 80.25 168.636719 79.917969 167.984375 C 79.828125 167.996094 79.738281 168.003906 79.648438 168.015625 Z M 78.425781 165.855469 C 78.96875 165.855469 79.492188 165.789062 80.015625 165.726562 L 80.453125 165.675781 C 80.457031 165.671875 80.460938 165.675781 80.464844 165.675781 C 80.941406 165.613281 81.394531 165.886719 81.589844 166.324219 C 81.59375 166.324219 81.59375 166.324219 81.59375 166.324219 C 81.878906 166.960938 82.210938 167.570312 82.578125 168.148438 C 82.628906 168.226562 82.691406 168.296875 82.746094 168.375 C 83.070312 168.863281 83.414062 169.335938 83.792969 169.777344 C 83.898438 169.898438 84.019531 170.007812 84.128906 170.125 C 84.472656 170.5 84.820312 170.867188 85.199219 171.199219 C 85.371094 171.347656 85.558594 171.480469 85.734375 171.621094 C 87.621094 173.132812 89.863281 174.167969 92.285156 174.585938 C 92.4375 174.609375 92.589844 174.648438 92.742188 174.667969 C 93.371094 174.757812 94.007812 174.808594 94.65625 174.808594 C 95.761719 174.8125 96.882812 174.683594 98.015625 174.433594 C 101.203125 173.683594 104.058594 171.851562 106.132812 169.160156 C 106.335938 168.894531 106.648438 168.738281 106.980469 168.726562 C 106.992188 168.726562 107.003906 168.726562 107.011719 168.726562 C 107.335938 168.726562 107.640625 168.867188 107.855469 169.109375 C 110.605469 172.289062 114.5625 174.113281 118.707031 174.113281 C 119.457031 174.113281 120.195312 174.039062 120.921875 173.925781 C 121.148438 173.890625 121.371094 173.835938 121.597656 173.789062 C 122.082031 173.6875 122.558594 173.570312 123.023438 173.421875 C 123.289062 173.339844 123.550781 173.25 123.808594 173.148438 C 124.234375 172.988281 124.644531 172.800781 125.050781 172.601562 C 125.296875 172.480469 125.546875 172.367188 125.78125 172.234375 C 126.207031 171.992188 126.605469 171.714844 127.003906 171.433594 C 127.175781 171.308594 127.363281 171.207031 127.527344 171.074219 C 127.535156 171.070312 127.546875 171.070312 127.554688 171.0625 C 129.996094 169.15625 131.816406 166.460938 132.613281 163.289062 C 132.636719 163.199219 132.691406 163.128906 132.734375 163.050781 C 132.765625 162.988281 132.78125 162.921875 132.824219 162.867188 C 132.871094 162.808594 132.9375 162.773438 132.996094 162.726562 C 133.058594 162.671875 133.113281 162.605469 133.191406 162.566406 C 133.195312 162.566406 133.195312 162.566406 133.195312 162.566406 C 133.199219 162.566406 133.199219 162.566406 133.199219 162.566406 C 133.226562 162.550781 133.257812 162.554688 133.285156 162.542969 C 133.554688 162.433594 133.855469 162.417969 134.128906 162.535156 C 135.898438 163.285156 137.785156 163.664062 139.746094 163.664062 C 139.980469 163.660156 140.210938 163.667969 140.445312 163.628906 C 140.449219 163.625 140.457031 163.628906 140.460938 163.628906 C 148.050781 163.253906 154.109375 157.027344 154.109375 149.40625 C 154.109375 145.59375 152.628906 142.007812 149.941406 139.308594 C 149.710938 139.082031 149.59375 138.765625 149.617188 138.449219 C 149.640625 138.125 149.800781 137.832031 150.054688 137.636719 C 153.65625 134.910156 155.71875 130.804688 155.71875 126.371094 C 155.71875 119.640625 151.089844 113.910156 144.460938 112.4375 C 143.988281 112.335938 143.640625 111.933594 143.59375 111.453125 C 142.925781 104.050781 136.804688 98.472656 129.359375 98.472656 C 127.285156 98.472656 125.1875 98.957031 123.125 99.910156 C 122.839844 100.039062 122.515625 100.050781 122.226562 99.925781 C 121.9375 99.808594 121.714844 99.570312 121.609375 99.277344 C 119.574219 93.601562 114.15625 89.785156 108.128906 89.785156 C 103.207031 89.785156 98.664062 92.28125 95.988281 96.46875 C 95.671875 96.964844 95.03125 97.128906 94.515625 96.84375 C 92.347656 95.660156 90.050781 95.0625 87.691406 95.0625 C 83.054688 95.0625 78.785156 97.242188 76.101562 100.933594 C 76.492188 101.390625 76.835938 101.890625 77.109375 102.445312 C 81.070312 101.570312 84.648438 104.074219 85.675781 107.605469 C 85.714844 107.730469 85.777344 107.84375 85.804688 107.96875 C 85.90625 108.390625 85.9375 108.835938 85.957031 109.28125 C 85.964844 109.394531 85.996094 109.503906 85.996094 109.617188 C 85.996094 109.621094 85.996094 109.621094 85.996094 109.621094 C 85.996094 109.625 85.996094 109.628906 85.996094 109.632812 C 85.996094 110.230469 85.917969 110.824219 85.753906 111.4375 C 86.898438 112.769531 87.523438 114.4375 87.523438 116.195312 C 87.523438 116.425781 87.460938 116.644531 87.441406 116.871094 C 87.414062 117.167969 87.394531 117.46875 87.332031 117.753906 C 87.277344 118 87.195312 118.230469 87.113281 118.46875 C 90.164062 119.640625 99.882812 124.132812 101.890625 134.359375 C 101.949219 134.65625 101.886719 134.964844 101.710938 135.210938 C 101.539062 135.457031 101.273438 135.625 100.972656 135.671875 C 100.855469 135.691406 99.859375 135.839844 98.304688 135.839844 C 95.539062 135.839844 91.003906 135.359375 86.5 132.835938 C 86.546875 133.285156 86.566406 133.746094 86.605469 134.199219 C 86.636719 134.640625 86.683594 135.078125 86.703125 135.523438 C 86.734375 136.121094 86.734375 136.726562 86.738281 137.328125 C 86.742188 137.753906 86.761719 138.171875 86.75 138.597656 C 86.734375 139.273438 86.679688 139.945312 86.625 140.621094 C 86.597656 140.972656 86.59375 141.328125 86.554688 141.679688 C 86.445312 142.703125 86.292969 143.722656 86.082031 144.734375 C 84.640625 151.589844 79.574219 156.296875 71.203125 158.660156 C 71.136719 158.691406 71.035156 158.71875 70.9375 158.742188 C 70.90625 158.75 70.886719 158.761719 70.855469 158.769531 C 70.855469 158.769531 70.851562 158.769531 70.851562 158.769531 C 70.847656 158.769531 70.847656 158.769531 70.847656 158.769531 L 70.847656 158.773438 C 70.8125 158.78125 70.78125 158.78125 70.746094 158.789062 C 70.09375 158.929688 69.445312 159.007812 68.796875 159.054688 C 68.605469 159.070312 68.417969 159.082031 68.226562 159.085938 C 68.085938 159.089844 67.941406 159.109375 67.800781 159.109375 C 67.273438 159.109375 66.75 159.078125 66.230469 159.015625 C 66.203125 159.011719 66.171875 159.015625 66.144531 159.011719 C 68.730469 163.230469 73.335938 165.855469 78.425781 165.855469 Z M 51.125 143.003906 C 52.464844 151.304688 59.53125 154.972656 65.222656 156.585938 C 65.234375 156.601562 65.257812 156.59375 65.277344 156.597656 C 66.9375 156.980469 68.652344 156.984375 70.417969 156.585938 C 72.367188 156.03125 74.105469 155.363281 75.632812 154.582031 C 80.226562 152.226562 82.949219 148.828125 83.90625 144.28125 C 84.101562 143.335938 84.242188 142.375 84.347656 141.414062 C 84.378906 141.101562 84.386719 140.789062 84.410156 140.480469 C 84.460938 139.824219 84.511719 139.167969 84.527344 138.511719 C 84.535156 138.140625 84.519531 137.773438 84.519531 137.402344 C 84.515625 136.804688 84.511719 136.203125 84.480469 135.609375 C 84.460938 135.21875 84.425781 134.832031 84.394531 134.445312 C 84.351562 133.878906 84.308594 133.308594 84.246094 132.75 C 84.203125 132.359375 84.148438 131.972656 84.09375 131.585938 C 84.058594 131.320312 84.019531 131.0625 83.980469 130.800781 C 83.976562 130.792969 83.972656 130.789062 83.972656 130.78125 C 83.78125 129.460938 83.527344 128.109375 83.21875 126.722656 C 83.191406 126.597656 83.164062 126.472656 83.136719 126.351562 C 82.902344 125.335938 82.605469 124.265625 82.304688 123.195312 C 82.21875 123.222656 82.128906 123.230469 82.039062 123.253906 C 81.800781 123.320312 81.5625 123.378906 81.316406 123.417969 C 81.121094 123.449219 80.929688 123.460938 80.734375 123.476562 C 80.527344 123.496094 80.328125 123.539062 80.113281 123.539062 C 80 123.539062 79.894531 123.503906 79.78125 123.496094 C 79.414062 123.480469 79.050781 123.4375 78.695312 123.363281 C 78.414062 123.308594 78.144531 123.234375 77.878906 123.148438 C 77.6875 123.085938 77.5 123.007812 77.316406 122.929688 C 76.910156 122.761719 76.53125 122.566406 76.164062 122.328125 C 75.933594 122.183594 75.707031 122.03125 75.492188 121.859375 C 75.324219 121.722656 75.160156 121.582031 75.003906 121.425781 C 74.667969 121.105469 74.351562 120.757812 74.078125 120.371094 C 74.066406 120.351562 74.042969 120.335938 74.027344 120.3125 C 73.140625 120.476562 72.269531 120.457031 71.433594 120.285156 C 70.863281 120.164062 70.316406 119.953125 69.785156 119.695312 C 69.539062 119.578125 69.289062 119.472656 69.050781 119.328125 C 65.929688 121.238281 61.695312 120.417969 59.5 117.734375 C 58.824219 118.679688 57.929688 119.445312 56.910156 119.980469 C 56.792969 120.042969 56.664062 120.070312 56.542969 120.125 C 56.140625 120.308594 55.738281 120.484375 55.304688 120.59375 C 55.105469 120.644531 54.890625 120.644531 54.6875 120.679688 C 54.339844 120.738281 53.996094 120.820312 53.636719 120.824219 C 53.632812 120.828125 53.632812 120.832031 53.632812 120.835938 C 53.09375 122.53125 52.632812 124.203125 52.246094 125.820312 C 52.230469 125.882812 52.21875 125.953125 52.203125 126.015625 C 51.847656 127.53125 51.5625 129 51.34375 130.40625 C 50.699219 134.480469 50.460938 138.832031 51.125 143.003906 Z M 49.15625 129.996094 C 49.394531 128.5 49.6875 127.058594 50.011719 125.667969 C 50.054688 125.488281 50.09375 125.308594 50.136719 125.125 C 50.503906 123.597656 50.902344 122.167969 51.316406 120.828125 C 51.34375 120.726562 51.367188 120.632812 51.398438 120.53125 C 51.199219 120.472656 51.011719 120.382812 50.820312 120.308594 C 50.71875 120.269531 50.621094 120.238281 50.523438 120.195312 C 50.464844 120.171875 50.402344 120.15625 50.34375 120.128906 L 49.734375 120.261719 C 49.617188 120.296875 38.550781 123.894531 35.84375 133.578125 C 38.285156 133.699219 43.964844 133.523438 49.15625 129.996094 Z M 49.15625 129.996094 " fill-opacity="1" fill-rule="nonzero"/></g><path fill="#323131" d="M 73.253906 131.371094 C 73.039062 131.6875 72.691406 131.855469 72.335938 131.855469 C 72.117188 131.855469 71.898438 131.792969 71.707031 131.664062 C 71.199219 131.316406 71.070312 130.625 71.417969 130.117188 C 72.328125 128.785156 73.894531 127.988281 75.605469 127.988281 C 77.316406 127.988281 78.882812 128.785156 79.792969 130.117188 C 80.140625 130.625 80.007812 131.316406 79.5 131.664062 C 78.992188 132.007812 78.300781 131.878906 77.953125 131.371094 C 76.964844 129.921875 74.242188 129.921875 73.253906 131.371094 Z M 73.253906 131.371094 " fill-opacity="1" fill-rule="nonzero"/><path fill="#323131" d="M 59.664062 127.988281 C 61.375 127.988281 62.941406 128.785156 63.851562 130.117188 C 64.199219 130.625 64.070312 131.316406 63.5625 131.664062 C 63.054688 132.007812 62.363281 131.878906 62.015625 131.371094 C 61.519531 130.644531 60.640625 130.214844 59.664062 130.214844 C 58.6875 130.214844 57.808594 130.644531 57.3125 131.371094 C 57.097656 131.6875 56.75 131.855469 56.394531 131.855469 C 56.175781 131.855469 55.960938 131.792969 55.765625 131.664062 C 55.257812 131.316406 55.128906 130.625 55.476562 130.117188 C 56.386719 128.785156 57.953125 127.988281 59.664062 127.988281 Z M 59.664062 127.988281 " fill-opacity="1" fill-rule="nonzero"/><path fill="#323131" d="M 61.285156 147.304688 C 62.773438 148.75 64.621094 149.550781 66.523438 149.789062 L 66.523438 145.746094 L 63.476562 143.167969 C 63.007812 142.773438 62.949219 142.070312 63.34375 141.601562 C 63.742188 141.136719 64.445312 141.078125 64.914062 141.46875 L 67.632812 143.769531 L 70.355469 141.46875 C 70.820312 141.078125 71.523438 141.136719 71.921875 141.601562 C 72.320312 142.070312 72.261719 142.773438 71.792969 143.167969 L 68.746094 145.746094 L 68.746094 149.789062 C 70.648438 149.550781 72.496094 148.75 73.984375 147.304688 C 74.421875 146.878906 75.132812 146.890625 75.558594 147.332031 C 75.984375 147.773438 75.972656 148.476562 75.53125 148.90625 C 73.316406 151.050781 70.476562 152.121094 67.632812 152.121094 C 64.792969 152.121094 61.949219 151.050781 59.738281 148.90625 C 59.292969 148.476562 59.285156 147.773438 59.710938 147.332031 C 60.136719 146.890625 60.84375 146.878906 61.285156 147.304688 Z M 61.285156 147.304688 " fill-opacity="1" fill-rule="nonzero"/><g fill="#323131" fill-opacity="1"><g transform="translate(157.953339, 143.45958)"><g><path d="M 17.046875 -49.109375 L 17.046875 -47.34375 C 15.941406 -47.144531 15.101562 -46.898438 14.53125 -46.609375 C 13.957031 -46.328125 13.523438 -45.921875 13.234375 -45.390625 C 12.953125 -44.867188 12.8125 -44.164062 12.8125 -43.28125 C 12.8125 -42.457031 12.90625 -41.570312 13.09375 -40.625 C 13.28125 -39.675781 13.554688 -38.617188 13.921875 -37.453125 L 22.34375 -8.09375 L 32.65625 -37.65625 C 32.800781 -38.113281 32.945312 -38.59375 33.09375 -39.09375 C 33.238281 -39.601562 33.363281 -40.097656 33.46875 -40.578125 C 33.582031 -41.054688 33.65625 -41.472656 33.6875 -41.828125 C 33.726562 -42.191406 33.75 -42.53125 33.75 -42.84375 C 33.75 -44.28125 33.414062 -45.328125 32.75 -45.984375 C 32.09375 -46.648438 30.972656 -47.101562 29.390625 -47.34375 L 29.390625 -49.109375 L 44.5 -49.109375 L 44.5 -47.34375 C 43.507812 -47.101562 42.710938 -46.753906 42.109375 -46.296875 C 41.515625 -45.835938 40.925781 -45.101562 40.34375 -44.09375 C 39.757812 -43.09375 39.046875 -41.488281 38.203125 -39.28125 L 23.28125 0.578125 L 18.5625 0.578125 L 6.4375 -39.53125 C 5.789062 -41.71875 5.226562 -43.269531 4.75 -44.1875 C 4.269531 -45.113281 3.738281 -45.8125 3.15625 -46.28125 C 2.582031 -46.75 1.796875 -47.101562 0.796875 -47.34375 L 0.796875 -49.109375 Z M 17.046875 -49.109375 "/></g></g></g><g fill="#323131" fill-opacity="1"><g transform="translate(199.46488, 143.45958)"><g><path d="M 13.78125 -48.484375 L 13.78125 -41.515625 L 7.15625 -41.515625 L 7.15625 -48.484375 Z M 3.484375 -1.765625 C 4.421875 -2.046875 5.085938 -2.296875 5.484375 -2.515625 C 5.878906 -2.734375 6.210938 -3.035156 6.484375 -3.421875 C 6.765625 -3.804688 6.984375 -4.390625 7.140625 -5.171875 C 7.296875 -5.960938 7.375 -7.203125 7.375 -8.890625 L 7.375 -24.5625 C 7.375 -26.101562 7.347656 -27.335938 7.296875 -28.265625 C 7.253906 -29.203125 7.085938 -29.953125 6.796875 -30.515625 C 6.503906 -31.085938 6.066406 -31.507812 5.484375 -31.78125 C 4.898438 -32.0625 4.066406 -32.296875 2.984375 -32.484375 L 2.984375 -34.390625 L 11.375 -34.71875 L 13.5625 -34.71875 L 13.5625 -9 C 13.5625 -6.9375 13.65625 -5.5 13.84375 -4.6875 C 14.039062 -3.882812 14.40625 -3.273438 14.9375 -2.859375 C 15.476562 -2.441406 16.363281 -2.078125 17.59375 -1.765625 L 17.59375 0 L 3.484375 0 Z M 3.484375 -1.765625 "/></g></g></g><g fill="#323131" fill-opacity="1"><g transform="translate(216.984758, 143.45958)"><g><path d="M 24.28125 -5.140625 L 23.734375 -5.28125 C 21.648438 -3.15625 19.691406 -1.644531 17.859375 -0.75 C 16.023438 0.132812 14.078125 0.578125 12.015625 0.578125 C 10.191406 0.578125 8.582031 0.222656 7.1875 -0.484375 C 5.800781 -1.191406 4.734375 -2.1875 3.984375 -3.46875 C 3.242188 -4.75 2.875 -6.226562 2.875 -7.90625 C 2.875 -11.414062 4.609375 -14.125 8.078125 -16.03125 C 11.546875 -17.9375 16.742188 -19.046875 23.671875 -19.359375 L 23.671875 -21.6875 C 23.671875 -24.1875 23.429688 -26.15625 22.953125 -27.59375 C 22.472656 -29.03125 21.71875 -30.082031 20.6875 -30.75 C 19.65625 -31.425781 18.273438 -31.765625 16.546875 -31.765625 C 14.671875 -31.765625 13.164062 -31.269531 12.03125 -30.28125 C 10.894531 -29.300781 10.035156 -27.828125 9.453125 -25.859375 L 4.75 -25.859375 L 4.75 -30.546875 C 7.050781 -31.742188 8.96875 -32.625 10.5 -33.1875 C 12.039062 -33.75 13.578125 -34.191406 15.109375 -34.515625 C 16.640625 -34.835938 18.195312 -35 19.78125 -35 C 22.15625 -35 24.0625 -34.617188 25.5 -33.859375 C 26.9375 -33.109375 28.015625 -31.953125 28.734375 -30.390625 C 29.460938 -28.835938 29.828125 -26.488281 29.828125 -23.34375 L 29.828125 -10.828125 C 29.828125 -9.054688 29.835938 -7.800781 29.859375 -7.0625 C 29.878906 -6.332031 29.945312 -5.65625 30.0625 -5.03125 C 30.1875 -4.40625 30.367188 -3.90625 30.609375 -3.53125 C 30.847656 -3.164062 31.203125 -2.847656 31.671875 -2.578125 C 32.140625 -2.316406 32.898438 -2.046875 33.953125 -1.765625 L 33.953125 0 L 24.109375 0 Z M 23.671875 -16.40625 C 18.804688 -16.351562 15.160156 -15.703125 12.734375 -14.453125 C 10.304688 -13.210938 9.09375 -11.332031 9.09375 -8.8125 C 9.09375 -7.445312 9.367188 -6.367188 9.921875 -5.578125 C 10.472656 -4.785156 11.171875 -4.238281 12.015625 -3.9375 C 12.859375 -3.632812 13.851562 -3.484375 15 -3.484375 C 16.632812 -3.484375 18.113281 -3.878906 19.4375 -4.671875 C 20.769531 -5.460938 21.804688 -6.46875 22.546875 -7.6875 C 23.296875 -8.914062 23.671875 -10.128906 23.671875 -11.328125 Z M 23.671875 -16.40625 "/></g></g></g><g fill="#323131" fill-opacity="1"><g transform="translate(250.007499, 143.45958)"><g><path d="M 35.75 -30.75 L 29.109375 -31.015625 L 28.78125 -30.609375 C 29.519531 -29.867188 30.101562 -28.859375 30.53125 -27.578125 C 30.96875 -26.296875 31.1875 -24.910156 31.1875 -23.421875 C 31.1875 -19.503906 29.976562 -16.484375 27.5625 -14.359375 C 25.15625 -12.242188 21.734375 -11.1875 17.296875 -11.1875 C 15.304688 -11.1875 13.59375 -11.4375 12.15625 -11.9375 C 10.332031 -10.550781 9.421875 -9.1875 9.421875 -7.84375 C 9.421875 -6.957031 9.59375 -6.285156 9.9375 -5.828125 C 10.289062 -5.367188 10.867188 -5.039062 11.671875 -4.84375 C 12.472656 -4.65625 13.691406 -4.5625 15.328125 -4.5625 L 23.953125 -4.5625 C 26.492188 -4.5625 28.566406 -4.164062 30.171875 -3.375 C 31.785156 -2.582031 32.929688 -1.519531 33.609375 -0.1875 C 34.296875 1.132812 34.640625 2.679688 34.640625 4.453125 C 34.640625 6.710938 33.988281 8.722656 32.6875 10.484375 C 31.394531 12.242188 29.523438 13.613281 27.078125 14.59375 C 24.640625 15.582031 21.789062 16.078125 18.53125 16.078125 C 16.101562 16.078125 13.890625 15.929688 11.890625 15.640625 C 9.890625 15.359375 8.175781 14.875 6.75 14.1875 C 5.320312 13.507812 4.21875 12.613281 3.4375 11.5 C 2.65625 10.382812 2.265625 8.984375 2.265625 7.296875 C 2.265625 5.785156 2.765625 4.410156 3.765625 3.171875 C 4.773438 1.941406 6.207031 0.859375 8.0625 -0.078125 C 6.925781 -0.523438 6.035156 -1.191406 5.390625 -2.078125 C 4.742188 -2.972656 4.421875 -4.019531 4.421875 -5.21875 C 4.421875 -6.582031 4.804688 -7.832031 5.578125 -8.96875 C 6.347656 -10.113281 7.703125 -11.414062 9.640625 -12.875 C 7.910156 -13.882812 6.597656 -15.25 5.703125 -16.96875 C 4.804688 -18.695312 4.359375 -20.664062 4.359375 -22.875 C 4.359375 -24.9375 4.695312 -26.726562 5.375 -28.25 C 6.0625 -29.78125 7.007812 -31.039062 8.21875 -32.03125 C 9.425781 -33.03125 10.859375 -33.773438 12.515625 -34.265625 C 14.171875 -34.753906 15.957031 -35 17.875 -35 C 19.601562 -35 21.316406 -34.796875 23.015625 -34.390625 L 35.75 -34.390625 Z M 10.796875 -23.453125 C 10.796875 -20.453125 11.40625 -18.132812 12.625 -16.5 C 13.851562 -14.875 15.617188 -14.0625 17.921875 -14.0625 C 19.140625 -14.0625 20.179688 -14.296875 21.046875 -14.765625 C 21.910156 -15.234375 22.609375 -15.875 23.140625 -16.6875 C 23.679688 -17.507812 24.078125 -18.453125 24.328125 -19.515625 C 24.585938 -20.578125 24.71875 -21.695312 24.71875 -22.875 C 24.71875 -24.988281 24.414062 -26.75 23.8125 -28.15625 C 23.21875 -29.570312 22.40625 -30.609375 21.375 -31.265625 C 20.34375 -31.929688 19.15625 -32.265625 17.8125 -32.265625 C 15.53125 -32.265625 13.789062 -31.507812 12.59375 -30 C 11.394531 -28.488281 10.796875 -26.304688 10.796875 -23.453125 Z M 11.6875 0.578125 C 10.46875 1.484375 9.550781 2.445312 8.9375 3.46875 C 8.320312 4.488281 8.015625 5.644531 8.015625 6.9375 C 8.015625 9.101562 8.875 10.691406 10.59375 11.703125 C 12.3125 12.722656 14.929688 13.234375 18.453125 13.234375 C 20.609375 13.234375 22.457031 12.945312 24 12.375 C 25.550781 11.800781 26.734375 10.972656 27.546875 9.890625 C 28.367188 8.816406 28.78125 7.554688 28.78125 6.109375 C 28.78125 5.441406 28.695312 4.789062 28.53125 4.15625 C 28.363281 3.519531 28.046875 2.945312 27.578125 2.4375 C 27.109375 1.9375 26.441406 1.535156 25.578125 1.234375 C 24.710938 0.941406 23.582031 0.796875 22.1875 0.796875 L 16.828125 0.796875 C 14.890625 0.796875 13.175781 0.722656 11.6875 0.578125 Z M 11.6875 0.578125 "/></g></g></g><g fill="#323131" fill-opacity="1"><g transform="translate(283.461873, 143.45958)"><g><path d="M 32.234375 -6.109375 C 30.691406 -4.503906 29.28125 -3.242188 28 -2.328125 C 26.71875 -1.421875 25.304688 -0.707031 23.765625 -0.1875 C 22.234375 0.320312 20.546875 0.578125 18.703125 0.578125 C 13.765625 0.578125 10.035156 -0.898438 7.515625 -3.859375 C 4.992188 -6.828125 3.734375 -11.203125 3.734375 -16.984375 C 3.734375 -20.554688 4.375 -23.707031 5.65625 -26.4375 C 6.945312 -29.175781 8.78125 -31.285156 11.15625 -32.765625 C 13.53125 -34.253906 16.265625 -35 19.359375 -35 C 21.773438 -35 23.832031 -34.613281 25.53125 -33.84375 C 27.238281 -33.082031 28.601562 -32.035156 29.625 -30.703125 C 30.644531 -29.367188 31.4375 -27.6875 32 -25.65625 C 32.5625 -23.632812 32.878906 -20.992188 32.953125 -17.734375 L 10.28125 -17.734375 L 10.28125 -17.09375 C 10.28125 -14.257812 10.597656 -11.875 11.234375 -9.9375 C 11.867188 -8.007812 12.910156 -6.5 14.359375 -5.40625 C 15.816406 -4.320312 17.707031 -3.78125 20.03125 -3.78125 C 22 -3.78125 23.769531 -4.144531 25.34375 -4.875 C 26.914062 -5.601562 28.476562 -6.796875 30.03125 -8.453125 Z M 26.1875 -20.71875 C 26.039062 -23.3125 25.71875 -25.425781 25.21875 -27.0625 C 24.71875 -28.707031 23.960938 -29.96875 22.953125 -30.84375 C 21.941406 -31.71875 20.625 -32.15625 19 -32.15625 C 16.519531 -32.15625 14.539062 -31.164062 13.0625 -29.1875 C 11.59375 -27.207031 10.726562 -24.382812 10.46875 -20.71875 Z M 26.1875 -20.71875 "/></g></g></g><g fill="#323131" fill-opacity="1"><g transform="translate(316.448637, 143.45958)"><g><path d="M 13.203125 -28.84375 L 13.703125 -28.703125 C 15.140625 -30.140625 16.320312 -31.222656 17.25 -31.953125 C 18.175781 -32.691406 19.066406 -33.28125 19.921875 -33.71875 C 20.785156 -34.164062 21.59375 -34.484375 22.34375 -34.671875 C 23.101562 -34.867188 23.878906 -34.96875 24.671875 -34.96875 C 27.078125 -34.96875 29.035156 -34.414062 30.546875 -33.3125 C 32.054688 -32.207031 33.097656 -30.515625 33.671875 -28.234375 C 35.472656 -30.054688 36.929688 -31.398438 38.046875 -32.265625 C 39.160156 -33.128906 40.296875 -33.796875 41.453125 -34.265625 C 42.617188 -34.734375 43.875 -34.96875 45.21875 -34.96875 C 46.820312 -34.96875 48.203125 -34.734375 49.359375 -34.265625 C 50.523438 -33.796875 51.507812 -33.078125 52.3125 -32.109375 C 53.125 -31.140625 53.710938 -29.921875 54.078125 -28.453125 C 54.453125 -26.992188 54.640625 -25.03125 54.640625 -22.5625 L 54.640625 -9 C 54.640625 -7.175781 54.695312 -5.914062 54.8125 -5.21875 C 54.9375 -4.519531 55.113281 -3.976562 55.34375 -3.59375 C 55.570312 -3.207031 55.910156 -2.875 56.359375 -2.59375 C 56.816406 -2.320312 57.585938 -2.046875 58.671875 -1.765625 L 58.671875 0 L 44.53125 0 L 44.53125 -1.765625 C 45.46875 -2.046875 46.140625 -2.296875 46.546875 -2.515625 C 46.953125 -2.734375 47.289062 -3.035156 47.5625 -3.421875 C 47.84375 -3.804688 48.0625 -4.398438 48.21875 -5.203125 C 48.375 -6.003906 48.453125 -7.21875 48.453125 -8.84375 L 48.453125 -18.28125 C 48.453125 -20.3125 48.394531 -21.992188 48.28125 -23.328125 C 48.175781 -24.660156 48.007812 -25.722656 47.78125 -26.515625 C 47.5625 -27.304688 47.289062 -27.925781 46.96875 -28.375 C 46.644531 -28.832031 46.273438 -29.226562 45.859375 -29.5625 C 45.453125 -29.90625 44.972656 -30.171875 44.421875 -30.359375 C 43.867188 -30.554688 43.140625 -30.65625 42.234375 -30.65625 C 41.273438 -30.65625 40.378906 -30.460938 39.546875 -30.078125 C 38.722656 -29.691406 37.820312 -29.039062 36.84375 -28.125 C 35.875 -27.21875 35.175781 -26.300781 34.75 -25.375 C 34.320312 -24.457031 34.109375 -23.375 34.109375 -22.125 L 34.109375 -9 C 34.109375 -7.175781 34.164062 -5.914062 34.28125 -5.21875 C 34.40625 -4.519531 34.578125 -3.976562 34.796875 -3.59375 C 35.023438 -3.207031 35.367188 -2.875 35.828125 -2.59375 C 36.285156 -2.320312 37.050781 -2.046875 38.125 -1.765625 L 38.125 0 L 24 0 L 24 -1.765625 C 24.925781 -2.046875 25.59375 -2.296875 26 -2.515625 C 26.414062 -2.734375 26.757812 -3.035156 27.03125 -3.421875 C 27.3125 -3.804688 27.53125 -4.398438 27.6875 -5.203125 C 27.84375 -6.003906 27.921875 -7.21875 27.921875 -8.84375 L 27.921875 -18.28125 C 27.921875 -20.40625 27.859375 -22.140625 27.734375 -23.484375 C 27.617188 -24.828125 27.429688 -25.90625 27.171875 -26.71875 C 26.921875 -27.539062 26.597656 -28.203125 26.203125 -28.703125 C 25.804688 -29.210938 25.40625 -29.597656 25 -29.859375 C 24.59375 -30.117188 24.113281 -30.316406 23.5625 -30.453125 C 23.007812 -30.585938 22.382812 -30.65625 21.6875 -30.65625 C 20.707031 -30.65625 19.785156 -30.429688 18.921875 -29.984375 C 18.054688 -29.535156 17.171875 -28.890625 16.265625 -28.046875 C 15.367188 -27.210938 14.691406 -26.335938 14.234375 -25.421875 C 13.785156 -24.515625 13.5625 -23.535156 13.5625 -22.484375 L 13.5625 -9 C 13.5625 -7.625 13.597656 -6.578125 13.671875 -5.859375 C 13.742188 -5.140625 13.859375 -4.578125 14.015625 -4.171875 C 14.171875 -3.765625 14.367188 -3.4375 14.609375 -3.1875 C 14.847656 -2.9375 15.1875 -2.695312 15.625 -2.46875 C 16.070312 -2.238281 16.738281 -2.003906 17.625 -1.765625 L 17.625 0 L 3.53125 0 L 3.53125 -1.765625 C 4.4375 -2.046875 5.085938 -2.296875 5.484375 -2.515625 C 5.878906 -2.734375 6.21875 -3.035156 6.5 -3.421875 C 6.789062 -3.804688 7.007812 -4.390625 7.15625 -5.171875 C 7.300781 -5.960938 7.375 -7.203125 7.375 -8.890625 L 7.375 -24.5625 C 7.375 -26.101562 7.347656 -27.335938 7.296875 -28.265625 C 7.253906 -29.203125 7.085938 -29.953125 6.796875 -30.515625 C 6.503906 -31.085938 6.066406 -31.507812 5.484375 -31.78125 C 4.898438 -32.0625 4.066406 -32.296875 2.984375 -32.484375 L 2.984375 -34.390625 L 11.40625 -34.71875 L 13.59375 -34.71875 Z M 13.203125 -28.84375 "/></g></g></g><g fill="#323131" fill-opacity="1"><g transform="translate(220.572487, 178.11088)"><g><path d="M 13.6875 -19.28125 C 13.6875 -20.414062 13.675781 -21.207031 13.65625 -21.65625 C 13.644531 -22.101562 13.597656 -22.484375 13.515625 -22.796875 C 13.441406 -23.109375 13.335938 -23.351562 13.203125 -23.53125 C 13.066406 -23.71875 12.882812 -23.863281 12.65625 -23.96875 C 12.425781 -24.070312 12.007812 -24.175781 11.40625 -24.28125 L 11.40625 -25.203125 L 15.703125 -25.390625 L 16.75 -25.390625 L 16.75 -4.84375 C 16.75 -3.914062 16.765625 -3.253906 16.796875 -2.859375 C 16.828125 -2.460938 16.898438 -2.144531 17.015625 -1.90625 C 17.140625 -1.675781 17.328125 -1.488281 17.578125 -1.34375 C 17.835938 -1.195312 18.285156 -1.054688 18.921875 -0.921875 L 18.921875 0 L 14.734375 0.171875 L 13.671875 0.171875 L 13.890625 -2.734375 L 13.625 -2.796875 C 12.875 -2.003906 12.222656 -1.410156 11.671875 -1.015625 C 11.128906 -0.617188 10.546875 -0.300781 9.921875 -0.0625 C 9.304688 0.164062 8.640625 0.28125 7.921875 0.28125 C 5.984375 0.28125 4.488281 -0.453125 3.4375 -1.921875 C 2.382812 -3.398438 1.859375 -5.523438 1.859375 -8.296875 C 1.859375 -10.234375 2.203125 -11.878906 2.890625 -13.234375 C 3.578125 -14.585938 4.503906 -15.597656 5.671875 -16.265625 C 6.835938 -16.929688 8.144531 -17.265625 9.59375 -17.265625 C 10.375 -17.265625 11.082031 -17.203125 11.71875 -17.078125 C 12.363281 -16.953125 13.019531 -16.75 13.6875 -16.46875 Z M 13.6875 -10.515625 C 13.6875 -11.441406 13.644531 -12.179688 13.5625 -12.734375 C 13.488281 -13.285156 13.351562 -13.75 13.15625 -14.125 C 12.957031 -14.507812 12.691406 -14.832031 12.359375 -15.09375 C 12.023438 -15.351562 11.660156 -15.539062 11.265625 -15.65625 C 10.867188 -15.78125 10.394531 -15.84375 9.84375 -15.84375 C 8.332031 -15.84375 7.179688 -15.234375 6.390625 -14.015625 C 5.597656 -12.804688 5.203125 -11.066406 5.203125 -8.796875 C 5.203125 -6.523438 5.523438 -4.796875 6.171875 -3.609375 C 6.828125 -2.429688 7.816406 -1.84375 9.140625 -1.84375 C 9.660156 -1.84375 10.085938 -1.882812 10.421875 -1.96875 C 10.765625 -2.0625 11.101562 -2.207031 11.4375 -2.40625 C 11.769531 -2.601562 12.109375 -2.867188 12.453125 -3.203125 C 12.796875 -3.546875 13.046875 -3.859375 13.203125 -4.140625 C 13.367188 -4.429688 13.488281 -4.757812 13.5625 -5.125 C 13.644531 -5.488281 13.6875 -5.960938 13.6875 -6.546875 Z M 13.6875 -10.515625 "/></g></g></g><g fill="#323131" fill-opacity="1"><g transform="translate(239.27115, 178.11088)"><g><path d="M 9.4375 0.28125 C 6.976562 0.28125 5.097656 -0.441406 3.796875 -1.890625 C 2.503906 -3.335938 1.859375 -5.476562 1.859375 -8.3125 C 1.859375 -10.269531 2.195312 -11.921875 2.875 -13.265625 C 3.5625 -14.617188 4.492188 -15.625 5.671875 -16.28125 C 6.859375 -16.9375 8.207031 -17.265625 9.71875 -17.265625 C 12.25 -17.265625 14.164062 -16.523438 15.46875 -15.046875 C 16.769531 -13.578125 17.421875 -11.460938 17.421875 -8.703125 C 17.421875 -6.742188 17.09375 -5.085938 16.4375 -3.734375 C 15.789062 -2.390625 14.867188 -1.382812 13.671875 -0.71875 C 12.484375 -0.0507812 11.070312 0.28125 9.4375 0.28125 Z M 5.21875 -8.6875 C 5.21875 -6.25 5.601562 -4.378906 6.375 -3.078125 C 7.144531 -1.773438 8.253906 -1.125 9.703125 -1.125 C 10.492188 -1.125 11.164062 -1.3125 11.71875 -1.6875 C 12.28125 -2.070312 12.734375 -2.585938 13.078125 -3.234375 C 13.429688 -3.890625 13.679688 -4.644531 13.828125 -5.5 C 13.984375 -6.363281 14.0625 -7.257812 14.0625 -8.1875 C 14.0625 -9.925781 13.867188 -11.367188 13.484375 -12.515625 C 13.097656 -13.671875 12.570312 -14.515625 11.90625 -15.046875 C 11.25 -15.585938 10.5 -15.859375 9.65625 -15.859375 C 8.21875 -15.859375 7.117188 -15.238281 6.359375 -14 C 5.597656 -12.757812 5.21875 -10.988281 5.21875 -8.6875 Z M 5.21875 -8.6875 "/></g></g></g><g fill="#323131" fill-opacity="1"><g transform="translate(257.100577, 178.11088)"><g><path d="M 13.609375 -13.078125 L 11.90625 -13.078125 C 11.644531 -13.785156 11.335938 -14.34375 10.984375 -14.75 C 10.628906 -15.15625 10.222656 -15.441406 9.765625 -15.609375 C 9.316406 -15.773438 8.769531 -15.859375 8.125 -15.859375 C 7.175781 -15.859375 6.421875 -15.632812 5.859375 -15.1875 C 5.296875 -14.75 5.015625 -14.144531 5.015625 -13.375 C 5.015625 -12.832031 5.125 -12.382812 5.34375 -12.03125 C 5.570312 -11.675781 5.921875 -11.34375 6.390625 -11.03125 C 6.867188 -10.726562 7.707031 -10.320312 8.90625 -9.8125 C 10.113281 -9.289062 11.046875 -8.8125 11.703125 -8.375 C 12.359375 -7.9375 12.867188 -7.425781 13.234375 -6.84375 C 13.609375 -6.269531 13.796875 -5.578125 13.796875 -4.765625 C 13.796875 -3.835938 13.632812 -3.050781 13.3125 -2.40625 C 13 -1.769531 12.550781 -1.25 11.96875 -0.84375 C 11.394531 -0.445312 10.707031 -0.160156 9.90625 0.015625 C 9.101562 0.191406 8.234375 0.28125 7.296875 0.28125 C 6.296875 0.28125 5.328125 0.207031 4.390625 0.0625 C 3.460938 -0.0820312 2.554688 -0.273438 1.671875 -0.515625 L 1.671875 -4.21875 L 3.40625 -4.21875 C 3.726562 -3.132812 4.203125 -2.347656 4.828125 -1.859375 C 5.453125 -1.367188 6.316406 -1.125 7.421875 -1.125 C 7.835938 -1.125 8.25 -1.164062 8.65625 -1.25 C 9.070312 -1.34375 9.4375 -1.488281 9.75 -1.6875 C 10.070312 -1.894531 10.328125 -2.175781 10.515625 -2.53125 C 10.703125 -2.882812 10.796875 -3.328125 10.796875 -3.859375 C 10.796875 -4.460938 10.675781 -4.953125 10.4375 -5.328125 C 10.207031 -5.710938 9.84375 -6.0625 9.34375 -6.375 C 8.851562 -6.6875 7.976562 -7.109375 6.71875 -7.640625 C 5.644531 -8.085938 4.78125 -8.523438 4.125 -8.953125 C 3.476562 -9.378906 2.96875 -9.878906 2.59375 -10.453125 C 2.226562 -11.035156 2.046875 -11.722656 2.046875 -12.515625 C 2.046875 -13.492188 2.304688 -14.335938 2.828125 -15.046875 C 3.359375 -15.765625 4.117188 -16.3125 5.109375 -16.6875 C 6.097656 -17.070312 7.265625 -17.265625 8.609375 -17.265625 C 9.390625 -17.265625 10.140625 -17.222656 10.859375 -17.140625 C 11.585938 -17.066406 12.503906 -16.914062 13.609375 -16.6875 Z M 13.609375 -13.078125 "/></g></g></g><g fill="#323131" fill-opacity="1"><g transform="translate(271.257896, 178.11088)"><g/></g></g><g fill="#323131" fill-opacity="1"><g transform="translate(277.804932, 178.11088)"><g><path d="M 13.609375 -13.078125 L 11.90625 -13.078125 C 11.644531 -13.785156 11.335938 -14.34375 10.984375 -14.75 C 10.628906 -15.15625 10.222656 -15.441406 9.765625 -15.609375 C 9.316406 -15.773438 8.769531 -15.859375 8.125 -15.859375 C 7.175781 -15.859375 6.421875 -15.632812 5.859375 -15.1875 C 5.296875 -14.75 5.015625 -14.144531 5.015625 -13.375 C 5.015625 -12.832031 5.125 -12.382812 5.34375 -12.03125 C 5.570312 -11.675781 5.921875 -11.34375 6.390625 -11.03125 C 6.867188 -10.726562 7.707031 -10.320312 8.90625 -9.8125 C 10.113281 -9.289062 11.046875 -8.8125 11.703125 -8.375 C 12.359375 -7.9375 12.867188 -7.425781 13.234375 -6.84375 C 13.609375 -6.269531 13.796875 -5.578125 13.796875 -4.765625 C 13.796875 -3.835938 13.632812 -3.050781 13.3125 -2.40625 C 13 -1.769531 12.550781 -1.25 11.96875 -0.84375 C 11.394531 -0.445312 10.707031 -0.160156 9.90625 0.015625 C 9.101562 0.191406 8.234375 0.28125 7.296875 0.28125 C 6.296875 0.28125 5.328125 0.207031 4.390625 0.0625 C 3.460938 -0.0820312 2.554688 -0.273438 1.671875 -0.515625 L 1.671875 -4.21875 L 3.40625 -4.21875 C 3.726562 -3.132812 4.203125 -2.347656 4.828125 -1.859375 C 5.453125 -1.367188 6.316406 -1.125 7.421875 -1.125 C 7.835938 -1.125 8.25 -1.164062 8.65625 -1.25 C 9.070312 -1.34375 9.4375 -1.488281 9.75 -1.6875 C 10.070312 -1.894531 10.328125 -2.175781 10.515625 -2.53125 C 10.703125 -2.882812 10.796875 -3.328125 10.796875 -3.859375 C 10.796875 -4.460938 10.675781 -4.953125 10.4375 -5.328125 C 10.207031 -5.710938 9.84375 -6.0625 9.34375 -6.375 C 8.851562 -6.6875 7.976562 -7.109375 6.71875 -7.640625 C 5.644531 -8.085938 4.78125 -8.523438 4.125 -8.953125 C 3.476562 -9.378906 2.96875 -9.878906 2.59375 -10.453125 C 2.226562 -11.035156 2.046875 -11.722656 2.046875 -12.515625 C 2.046875 -13.492188 2.304688 -14.335938 2.828125 -15.046875 C 3.359375 -15.765625 4.117188 -16.3125 5.109375 -16.6875 C 6.097656 -17.070312 7.265625 -17.265625 8.609375 -17.265625 C 9.390625 -17.265625 10.140625 -17.222656 10.859375 -17.140625 C 11.585938 -17.066406 12.503906 -16.914062 13.609375 -16.6875 Z M 13.609375 -13.078125 "/></g></g></g><g fill="#323131" fill-opacity="1"><g transform="translate(291.962257, 178.11088)"><g><path d="M 9.4375 0.28125 C 6.976562 0.28125 5.097656 -0.441406 3.796875 -1.890625 C 2.503906 -3.335938 1.859375 -5.476562 1.859375 -8.3125 C 1.859375 -10.269531 2.195312 -11.921875 2.875 -13.265625 C 3.5625 -14.617188 4.492188 -15.625 5.671875 -16.28125 C 6.859375 -16.9375 8.207031 -17.265625 9.71875 -17.265625 C 12.25 -17.265625 14.164062 -16.523438 15.46875 -15.046875 C 16.769531 -13.578125 17.421875 -11.460938 17.421875 -8.703125 C 17.421875 -6.742188 17.09375 -5.085938 16.4375 -3.734375 C 15.789062 -2.390625 14.867188 -1.382812 13.671875 -0.71875 C 12.484375 -0.0507812 11.070312 0.28125 9.4375 0.28125 Z M 5.21875 -8.6875 C 5.21875 -6.25 5.601562 -4.378906 6.375 -3.078125 C 7.144531 -1.773438 8.253906 -1.125 9.703125 -1.125 C 10.492188 -1.125 11.164062 -1.3125 11.71875 -1.6875 C 12.28125 -2.070312 12.734375 -2.585938 13.078125 -3.234375 C 13.429688 -3.890625 13.679688 -4.644531 13.828125 -5.5 C 13.984375 -6.363281 14.0625 -7.257812 14.0625 -8.1875 C 14.0625 -9.925781 13.867188 -11.367188 13.484375 -12.515625 C 13.097656 -13.671875 12.570312 -14.515625 11.90625 -15.046875 C 11.25 -15.585938 10.5 -15.859375 9.65625 -15.859375 C 8.21875 -15.859375 7.117188 -15.238281 6.359375 -14 C 5.597656 -12.757812 5.21875 -10.988281 5.21875 -8.6875 Z M 5.21875 -8.6875 "/></g></g></g><g fill="#323131" fill-opacity="1"><g transform="translate(309.791686, 178.11088)"><g><path d="M 19 0 L 12.015625 0 L 12.015625 -0.875 C 12.472656 -1.007812 12.800781 -1.128906 13 -1.234375 C 13.195312 -1.347656 13.363281 -1.5 13.5 -1.6875 C 13.644531 -1.875 13.753906 -2.164062 13.828125 -2.5625 C 13.898438 -2.957031 13.9375 -3.554688 13.9375 -4.359375 L 13.9375 -9.015625 C 13.9375 -9.835938 13.910156 -10.585938 13.859375 -11.265625 C 13.816406 -11.941406 13.738281 -12.492188 13.625 -12.921875 C 13.519531 -13.347656 13.382812 -13.679688 13.21875 -13.921875 C 13.0625 -14.171875 12.875 -14.378906 12.65625 -14.546875 C 12.4375 -14.722656 12.1875 -14.859375 11.90625 -14.953125 C 11.625 -15.054688 11.25 -15.109375 10.78125 -15.109375 C 10.320312 -15.109375 9.882812 -15.015625 9.46875 -14.828125 C 9.050781 -14.648438 8.59375 -14.335938 8.09375 -13.890625 C 7.601562 -13.441406 7.242188 -13 7.015625 -12.5625 C 6.796875 -12.125 6.6875 -11.617188 6.6875 -11.046875 L 6.6875 -4.4375 C 6.6875 -3.414062 6.734375 -2.707031 6.828125 -2.3125 C 6.921875 -1.914062 7.097656 -1.613281 7.359375 -1.40625 C 7.628906 -1.195312 8.066406 -1.019531 8.671875 -0.875 L 8.671875 0 L 1.71875 0 L 1.71875 -0.875 C 2.175781 -1.007812 2.503906 -1.128906 2.703125 -1.234375 C 2.898438 -1.347656 3.066406 -1.5 3.203125 -1.6875 C 3.335938 -1.875 3.441406 -2.160156 3.515625 -2.546875 C 3.597656 -2.941406 3.640625 -3.550781 3.640625 -4.375 L 3.640625 -12.109375 C 3.640625 -12.867188 3.625 -13.476562 3.59375 -13.9375 C 3.570312 -14.40625 3.488281 -14.773438 3.34375 -15.046875 C 3.207031 -15.328125 2.992188 -15.535156 2.703125 -15.671875 C 2.410156 -15.804688 2 -15.921875 1.46875 -16.015625 L 1.46875 -16.953125 L 5.625 -17.125 L 6.703125 -17.125 L 6.515625 -14.21875 L 6.765625 -14.15625 C 7.640625 -15.039062 8.34375 -15.671875 8.875 -16.046875 C 9.414062 -16.429688 9.957031 -16.722656 10.5 -16.921875 C 11.050781 -17.128906 11.632812 -17.234375 12.25 -17.234375 C 12.894531 -17.234375 13.46875 -17.160156 13.96875 -17.015625 C 14.46875 -16.867188 14.910156 -16.640625 15.296875 -16.328125 C 15.679688 -16.023438 16 -15.644531 16.25 -15.1875 C 16.5 -14.738281 16.6875 -14.191406 16.8125 -13.546875 C 16.9375 -12.910156 17 -12.101562 17 -11.125 L 17 -4.4375 C 17 -3.613281 17.019531 -3.019531 17.0625 -2.65625 C 17.113281 -2.289062 17.195312 -2.003906 17.3125 -1.796875 C 17.425781 -1.597656 17.597656 -1.429688 17.828125 -1.296875 C 18.054688 -1.160156 18.445312 -1.019531 19 -0.875 Z M 19 0 "/></g></g></g><g fill="#323131" fill-opacity="1"><g transform="translate(328.614535, 178.11088)"><g><path d="M 6.46875 -14.171875 L 6.546875 -14.15625 C 7.460938 -15.09375 8.191406 -15.742188 8.734375 -16.109375 C 9.273438 -16.484375 9.804688 -16.765625 10.328125 -16.953125 C 10.859375 -17.140625 11.425781 -17.234375 12.03125 -17.234375 C 12.675781 -17.234375 13.253906 -17.15625 13.765625 -17 C 14.273438 -16.851562 14.722656 -16.625 15.109375 -16.3125 C 15.492188 -16 15.804688 -15.613281 16.046875 -15.15625 C 16.285156 -14.695312 16.460938 -14.148438 16.578125 -13.515625 C 16.703125 -12.890625 16.765625 -12.09375 16.765625 -11.125 L 16.765625 -4.4375 C 16.765625 -3.40625 16.804688 -2.703125 16.890625 -2.328125 C 16.984375 -1.960938 17.144531 -1.675781 17.375 -1.46875 C 17.601562 -1.257812 18.066406 -1.0625 18.765625 -0.875 L 18.765625 0 L 11.78125 0 L 11.78125 -0.875 C 12.238281 -1.007812 12.566406 -1.128906 12.765625 -1.234375 C 12.972656 -1.347656 13.144531 -1.5 13.28125 -1.6875 C 13.414062 -1.875 13.519531 -2.164062 13.59375 -2.5625 C 13.675781 -2.957031 13.71875 -3.554688 13.71875 -4.359375 L 13.71875 -9.015625 C 13.71875 -10.585938 13.632812 -11.789062 13.46875 -12.625 C 13.3125 -13.457031 13 -14.078125 12.53125 -14.484375 C 12.0625 -14.898438 11.410156 -15.109375 10.578125 -15.109375 C 10.097656 -15.109375 9.671875 -15.023438 9.296875 -14.859375 C 8.921875 -14.691406 8.484375 -14.394531 7.984375 -13.96875 C 7.484375 -13.550781 7.101562 -13.113281 6.84375 -12.65625 C 6.59375 -12.207031 6.46875 -11.734375 6.46875 -11.234375 L 6.46875 -4.4375 C 6.46875 -3.632812 6.488281 -3.0625 6.53125 -2.71875 C 6.570312 -2.375 6.648438 -2.082031 6.765625 -1.84375 C 6.890625 -1.613281 7.070312 -1.425781 7.3125 -1.28125 C 7.5625 -1.132812 7.9375 -1 8.4375 -0.875 L 8.4375 0 L 1.421875 0 L 1.421875 -0.875 C 1.941406 -1.007812 2.3125 -1.140625 2.53125 -1.265625 C 2.757812 -1.398438 2.9375 -1.566406 3.0625 -1.765625 C 3.1875 -1.972656 3.273438 -2.265625 3.328125 -2.640625 C 3.390625 -3.015625 3.421875 -3.613281 3.421875 -4.4375 L 3.421875 -19.28125 C 3.421875 -20.414062 3.410156 -21.207031 3.390625 -21.65625 C 3.378906 -22.101562 3.332031 -22.484375 3.25 -22.796875 C 3.175781 -23.109375 3.070312 -23.351562 2.9375 -23.53125 C 2.800781 -23.71875 2.617188 -23.863281 2.390625 -23.96875 C 2.160156 -24.070312 1.742188 -24.175781 1.140625 -24.28125 L 1.140625 -25.203125 L 5.40625 -25.390625 L 6.46875 -25.390625 Z M 6.46875 -14.171875 "/></g></g></g><g fill="#323131" fill-opacity="1"><g transform="translate(347.206763, 178.11088)"><g><path d="M 9.4375 0.28125 C 6.976562 0.28125 5.097656 -0.441406 3.796875 -1.890625 C 2.503906 -3.335938 1.859375 -5.476562 1.859375 -8.3125 C 1.859375 -10.269531 2.195312 -11.921875 2.875 -13.265625 C 3.5625 -14.617188 4.492188 -15.625 5.671875 -16.28125 C 6.859375 -16.9375 8.207031 -17.265625 9.71875 -17.265625 C 12.25 -17.265625 14.164062 -16.523438 15.46875 -15.046875 C 16.769531 -13.578125 17.421875 -11.460938 17.421875 -8.703125 C 17.421875 -6.742188 17.09375 -5.085938 16.4375 -3.734375 C 15.789062 -2.390625 14.867188 -1.382812 13.671875 -0.71875 C 12.484375 -0.0507812 11.070312 0.28125 9.4375 0.28125 Z M 5.21875 -8.6875 C 5.21875 -6.25 5.601562 -4.378906 6.375 -3.078125 C 7.144531 -1.773438 8.253906 -1.125 9.703125 -1.125 C 10.492188 -1.125 11.164062 -1.3125 11.71875 -1.6875 C 12.28125 -2.070312 12.734375 -2.585938 13.078125 -3.234375 C 13.429688 -3.890625 13.679688 -4.644531 13.828125 -5.5 C 13.984375 -6.363281 14.0625 -7.257812 14.0625 -8.1875 C 14.0625 -9.925781 13.867188 -11.367188 13.484375 -12.515625 C 13.097656 -13.671875 12.570312 -14.515625 11.90625 -15.046875 C 11.25 -15.585938 10.5 -15.859375 9.65625 -15.859375 C 8.21875 -15.859375 7.117188 -15.238281 6.359375 -14 C 5.597656 -12.757812 5.21875 -10.988281 5.21875 -8.6875 Z M 5.21875 -8.6875 "/></g></g></g><g fill="#323131" fill-opacity="1"><g transform="translate(365.036192, 178.11088)"><g><path d="M 13.609375 -13.078125 L 11.90625 -13.078125 C 11.644531 -13.785156 11.335938 -14.34375 10.984375 -14.75 C 10.628906 -15.15625 10.222656 -15.441406 9.765625 -15.609375 C 9.316406 -15.773438 8.769531 -15.859375 8.125 -15.859375 C 7.175781 -15.859375 6.421875 -15.632812 5.859375 -15.1875 C 5.296875 -14.75 5.015625 -14.144531 5.015625 -13.375 C 5.015625 -12.832031 5.125 -12.382812 5.34375 -12.03125 C 5.570312 -11.675781 5.921875 -11.34375 6.390625 -11.03125 C 6.867188 -10.726562 7.707031 -10.320312 8.90625 -9.8125 C 10.113281 -9.289062 11.046875 -8.8125 11.703125 -8.375 C 12.359375 -7.9375 12.867188 -7.425781 13.234375 -6.84375 C 13.609375 -6.269531 13.796875 -5.578125 13.796875 -4.765625 C 13.796875 -3.835938 13.632812 -3.050781 13.3125 -2.40625 C 13 -1.769531 12.550781 -1.25 11.96875 -0.84375 C 11.394531 -0.445312 10.707031 -0.160156 9.90625 0.015625 C 9.101562 0.191406 8.234375 0.28125 7.296875 0.28125 C 6.296875 0.28125 5.328125 0.207031 4.390625 0.0625 C 3.460938 -0.0820312 2.554688 -0.273438 1.671875 -0.515625 L 1.671875 -4.21875 L 3.40625 -4.21875 C 3.726562 -3.132812 4.203125 -2.347656 4.828125 -1.859375 C 5.453125 -1.367188 6.316406 -1.125 7.421875 -1.125 C 7.835938 -1.125 8.25 -1.164062 8.65625 -1.25 C 9.070312 -1.34375 9.4375 -1.488281 9.75 -1.6875 C 10.070312 -1.894531 10.328125 -2.175781 10.515625 -2.53125 C 10.703125 -2.882812 10.796875 -3.328125 10.796875 -3.859375 C 10.796875 -4.460938 10.675781 -4.953125 10.4375 -5.328125 C 10.207031 -5.710938 9.84375 -6.0625 9.34375 -6.375 C 8.851562 -6.6875 7.976562 -7.109375 6.71875 -7.640625 C 5.644531 -8.085938 4.78125 -8.523438 4.125 -8.953125 C 3.476562 -9.378906 2.96875 -9.878906 2.59375 -10.453125 C 2.226562 -11.035156 2.046875 -11.722656 2.046875 -12.515625 C 2.046875 -13.492188 2.304688 -14.335938 2.828125 -15.046875 C 3.359375 -15.765625 4.117188 -16.3125 5.109375 -16.6875 C 6.097656 -17.070312 7.265625 -17.265625 8.609375 -17.265625 C 9.390625 -17.265625 10.140625 -17.222656 10.859375 -17.140625 C 11.585938 -17.066406 12.503906 -16.914062 13.609375 -16.6875 Z M 13.609375 -13.078125 "/></g></g></g></svg>